<?xml version="1.0" encoding="UTF-8" standalone="no"?>
<!-- Created with Inkscape (http://www.inkscape.org/) -->

<svg
   xmlns:dc="http://purl.org/dc/elements/1.1/"
   xmlns:cc="http://creativecommons.org/ns#"
   xmlns:rdf="http://www.w3.org/1999/02/22-rdf-syntax-ns#"
   xmlns:svg="http://www.w3.org/2000/svg"
   xmlns="http://www.w3.org/2000/svg"
   xmlns:sodipodi="http://sodipodi.sourceforge.net/DTD/sodipodi-0.dtd"
   xmlns:inkscape="http://www.inkscape.org/namespaces/inkscape"
   width="1260"
   height="765"
   id="svg2"
   version="1.1"
   inkscape:version="0.48.4 r9943 custom"
   sodipodi:docname="inkscape_components.svg">
  <defs
     id="defs4" />
  <sodipodi:namedview
     id="base"
     pagecolor="#ffffff"
     bordercolor="#666666"
     borderopacity="1.0"
     inkscape:pageopacity="0.0"
     inkscape:pageshadow="2"
     inkscape:zoom="0.70710678"
     inkscape:cx="555.55996"
     inkscape:cy="306.47759"
     inkscape:document-units="in"
     inkscape:current-layer="layer1"
     showgrid="false"
     inkscape:window-width="1035"
     inkscape:window-height="829"
     inkscape:window-x="0"
     inkscape:window-y="23"
     inkscape:window-maximized="0" />
  <metadata
     id="metadata7">
    <rdf:RDF>
      <cc:Work
         rdf:about="">
        <dc:format>image/svg+xml</dc:format>
        <dc:type
           rdf:resource="http://purl.org/dc/dcmitype/StillImage" />
        <dc:title></dc:title>
      </cc:Work>
    </rdf:RDF>
  </metadata>
  <g
     inkscape:label="Layer 1"
     inkscape:groupmode="layer"
     id="layer1"
     transform="translate(0,-287.36218)">
    <path
       style="font-size:medium;font-style:normal;font-variant:normal;font-weight:normal;font-stretch:normal;text-indent:0;text-align:start;text-decoration:none;line-height:normal;letter-spacing:normal;word-spacing:normal;text-transform:none;direction:ltr;block-progression:tb;writing-mode:lr-tb;text-anchor:start;baseline-shift:baseline;color:#000000;fill:#000000;fill-opacity:1;stroke:none;stroke-width:0.99000001;marker:none;visibility:visible;display:inline;overflow:visible;enable-background:accumulate;font-family:Sans;-inkscape-font-specification:Sans"
       d="m 271.375,406.14343 -181.375,20 -0.0625,0 -38.5,0 -0.5,0 0,0.5 0,89.5 -11.5,0 0,-89.5 0,-0.5 -0.5,0 -37.5,0 -0.5,0 0,0.5 0,230 0,0.5 0.5,0 88.5,0 0.0625,0 181.375,20 0.0625,0 0.0625,0 179.21875,-20 0.0625,0 90.21875,0 0.0625,0 180.3125,20 0.0625,0 0.0625,0 179.21875,-20 0.0625,0 33.65625,0 0.5,0 0,-0.5 0,-89.5 11.5,0 0,89.5 0,0.5 0.5,0 44.5,0 0.5,0 0,-0.5 0,-230 0,-0.5 -0.5,0 -90.65625,0 -0.0625,0 -179.21875,-20 -0.0625,0 -0.0625,0 -180.3125,20 -0.0625,0 -90.21875,0 -0.0625,0 -179.21875,-20 -0.0625,0 -0.0625,0 z m 0,1 0.125,0 179.15625,20 0.0312,0 0.0312,0 90.34375,0 0.0312,0 0.0312,0 180.25,-20 0.125,0 179.15625,20 0.0312,0 0.0312,0 90.21875,0 0,229 -43.5,0 0,-89.5 0,-0.5 -0.5,0 -12.5,0 -0.5,0 0,0.5 0,89.5 -33.21875,0 -0.0312,0 -0.0312,0 -179.15625,20 -0.125,0 -180.25,-20 -0.0312,0 -0.0312,0 -90.34375,0 -0.0312,0 -0.0312,0 -179.15625,20 -0.125,0 -181.3125,-20 -0.03125,0 -0.03125,0 -88.0625,0 0,-229 36.5,0 0,89.5 0,0.5 0.5,0 12.5,0 0.5,0 0,-0.5 0,-89.5 38.0625,0 0.03125,0 0.03125,0 181.3125,-20 z"
       id="rect2802"
       inkscape:connector-curvature="0" />
  </g>
</svg>
